<?xml version="1.0" encoding="UTF-8" standalone="no"?>
<!-- Created with Inkscape (http://www.inkscape.org/) -->

<svg
   width="122.60455mm"
   height="67.012283mm"
   viewBox="0 0 122.60455 67.012283"
   version="1.1"
   id="svg1"
   inkscape:version="1.3 (0e150ed6c4, 2023-07-21)"
   sodipodi:docname="problem_12_split_curve.svg"
   inkscape:export-filename="problem_12_split_curve.png"
   inkscape:export-xdpi="253.42"
   inkscape:export-ydpi="253.42"
   xmlns:inkscape="http://www.inkscape.org/namespaces/inkscape"
   xmlns:sodipodi="http://sodipodi.sourceforge.net/DTD/sodipodi-0.dtd"
   xmlns="http://www.w3.org/2000/svg"
   xmlns:svg="http://www.w3.org/2000/svg">
  <sodipodi:namedview
     id="namedview1"
     pagecolor="#505050"
     bordercolor="#eeeeee"
     borderopacity="1"
     inkscape:showpageshadow="0"
     inkscape:pageopacity="0"
     inkscape:pagecheckerboard="0"
     inkscape:deskcolor="#d1d1d1"
     inkscape:document-units="mm"
     showgrid="true"
     inkscape:zoom="4.1726443"
     inkscape:cx="293.45899"
     inkscape:cy="76.689978"
     inkscape:window-width="1910"
     inkscape:window-height="1034"
     inkscape:window-x="1923"
     inkscape:window-y="41"
     inkscape:window-maximized="1"
     inkscape:current-layer="layer1">
    <inkscape:grid
       id="grid1"
       units="px"
       originx="-205.9494"
       originy="-145.21175"
       spacingx="0.26458333"
       spacingy="0.26458334"
       empcolor="#3f3fff"
       empopacity="0.25098039"
       color="#3f3fff"
       opacity="0.1254902"
       empspacing="5"
       dotted="false"
       gridanglex="30"
       gridanglez="30"
       visible="true" />
  </sodipodi:namedview>
  <defs
     id="defs1">
    <marker
       style="overflow:visible"
       id="DartArrow"
       refX="0"
       refY="0"
       orient="auto-start-reverse"
       inkscape:stockid="Dart arrow"
       markerWidth="1"
       markerHeight="1"
       viewBox="0 0 1 1"
       inkscape:isstock="true"
       inkscape:collect="always"
       preserveAspectRatio="xMidYMid">
      <path
         style="fill:context-stroke;fill-rule:evenodd;stroke:none"
         d="M 0,0 5,-5 -12.5,0 5,5 Z"
         transform="scale(-0.5)"
         id="path6" />
    </marker>
  </defs>
  <g
     inkscape:label="Layer 1"
     inkscape:groupmode="layer"
     id="layer1"
     transform="translate(-54.4908, -38.4206)">
    <path
       style="opacity:0.998;fill:none;fill-rule:evenodd;stroke:#000000;stroke-width:0.253;stroke-linecap:round;stroke-linejoin:bevel"
       d="m 132.13984,74.102341 c -0.16357,-0.0023 -0.32567,-0.006 -0.48631,-0.01105 -0.3269,-0.01028 -0.64767,-0.026 -0.96118,-0.04806 -0.31351,-0.02206 -0.61994,-0.05036 -0.91881,-0.08475 -0.29886,-0.03439 -0.59034,-0.0752 -0.87333,-0.122473 -0.28298,-0.04727 -0.55734,-0.101035 -0.8232,-0.161747 -0.26587,-0.06071 -0.523,-0.128384 -0.7705,-0.203088 -0.2475,-0.07471 -0.48576,-0.156212 -0.71365,-0.245463 -0.22789,-0.08925 -0.44563,-0.18607 -0.65267,-0.290422 -0.20705,-0.104352 -0.40313,-0.216406 -0.58808,-0.336413 -0.18496,-0.120008 -0.35876,-0.24774 -0.52038,-0.383956 -0.16163,-0.136217 -0.31099,-0.280585 -0.44804,-0.433566 -0.13705,-0.15298 -0.26187,-0.314943 -0.3731,-0.485241 -0.11124,-0.170299 -0.20883,-0.349265 -0.29301,-0.537435 -0.0842,-0.188171 -0.15496,-0.385099 -0.21084,-0.591695 -0.0559,-0.206597 -0.0972,-0.422962 -0.1235,-0.64854 -0.0263,-0.225577 -0.0375,-0.460788 -0.0331,-0.7059 0.004,-0.245112 0.0245,-0.500127 0.061,-0.765328 0.0365,-0.265201 0.0894,-0.540461 0.15916,-0.826306 0.0697,-0.285844 0.15622,-0.582309 0.26045,-0.889351 0.10424,-0.307042 0.22589,-0.624637 0.36587,-0.95343 0.13999,-0.328794 0.29845,-0.668477 0.47543,-1.019576 0.17697,-0.3511 0.37287,-0.71383 0.58807,-1.087789 0.21521,-0.37396 0.44967,-0.759145 0.70435,-1.156519 0.25469,-0.397374 0.52936,-0.806489 0.82476,-1.227832 0.2954,-0.421343 0.61143,-0.854826 0.94878,-1.300696 0.14823,-0.19591 0.30064,-0.394221 0.45723,-0.59495"
       id="path16" />
    <path
       style="opacity:0.998;fill:none;fill-rule:evenodd;stroke:#000000;stroke-width:0.253;stroke-linecap:round;stroke-linejoin:bevel"
       d="m 129.3653,57.549147 c -0.15127,-0.138801 -0.3053,-0.274564 -0.46199,-0.40721 -0.24866,-0.205709 -0.50372,-0.403555 -0.76481,-0.593246 -0.26123,-0.18973 -0.52835,-0.371204 -0.80098,-0.544152 -0.27245,-0.173014 -0.55026,-0.337427 -0.83303,-0.492994 -0.28282,-0.155411 -0.57046,-0.3019 -0.86248,-0.439249 -0.29201,-0.137428 -0.58826,-0.265649 -0.88832,-0.384473 -0.30017,-0.118899 -0.604,-0.228335 -0.91105,-0.328145 -0.30699,-0.09963 -0.61702,-0.189592 -0.92966,-0.269751 -0.31259,-0.08033 -0.62763,-0.150815 -0.94465,-0.211357 -0.31701,-0.06047 -0.63583,-0.110965 -0.95601,-0.151412 -0.32022,-0.0404 -0.64163,-0.07073 -0.96376,-0.09095 -0.32223,-0.0203 -0.64503,-0.03047 -0.9679,-0.03049 -0.89705,-3e-6 -1.79239,0.07833 -2.67581,0.234094 -0.8833,0.155742 -1.75132,0.388308 -2.59416,0.695048 -0.84299,0.306857 -1.65758,0.686744 -2.43447,1.135331 -0.7769,0.448465 -1.51316,0.963915 -2.20039,1.540475 -0.68712,0.576722 -1.32257,1.212344 -1.8991,1.899625 -0.57654,0.687059 -1.09199,1.423142 -1.54048,2.199866 -0.44859,0.776897 -0.82847,1.591483 -1.13533,2.434477 -0.30677,0.84301 -0.53934,1.711199 -0.69505,2.594673 -0.15577,0.883421 -0.23409,1.778757 -0.23409,2.675806 0,0.897049 0.0783,1.792385 0.23409,2.675806 0.15574,0.883299 0.38831,1.751314 0.69505,2.594157 0.30686,0.842993 0.68674,1.65758 1.13533,2.434476 0.44847,0.776902 0.96392,1.51316 1.54048,2.200383 0.57655,0.687102 1.212,1.322551 1.8991,1.899109 0.68721,0.576739 1.42347,1.092362 2.20039,1.540991 0.77691,0.44841 1.5915,0.828123 2.43447,1.134814 0.84283,0.306916 1.71084,0.539654 2.59416,0.695565 0.88342,0.155768 1.77876,0.234097 2.67581,0.234094 0.89705,3e-6 1.79238,-0.07833 2.6758,-0.234094 0.88349,-0.155881 1.75168,-0.38862 2.59468,-0.695565 0.84297,-0.306691 1.65756,-0.686404 2.43447,-1.134814 0.77692,-0.44863 1.51318,-0.964252 2.20038,-1.540991 0.6871,-0.576558 1.32255,-1.212007 1.89911,-1.899109 0.57656,-0.687223 1.09201,-1.423481 1.54048,-2.200383 0.44859,-0.776896 0.82847,-1.591483 1.13533,-2.434476 0.0194,-0.07032 0.0384,-0.140771 0.0568,-0.211357 l 4e-5,2e-6"
       id="path15"
       sodipodi:nodetypes="cccccccccccccsccccsccsccccccccsccccccccc" />
    <path
       style="fill:none;stroke:#000000;stroke-width:0.289;stroke-dasharray:none"
       d="m 130.58891,56.219106 c 0.0972,0.08386 0.19353,0.168839 0.28882,0.254903 0.25721,0.241545 0.50678,0.491107 0.74832,0.748318 0.24169,0.257486 0.47523,0.522505 0.70027,0.794663 0.22498,0.271967 0.44138,0.550935 0.64885,0.83649 0.2075,0.285526 0.40597,0.577499 0.59514,0.875487 0.18923,0.297977 0.36905,0.601825 0.5392,0.911095 0.16999,0.309515 0.3302,0.624295 0.48041,0.943875 0.15031,0.319373 0.29055,0.64339 0.42051,0.97157 0.13004,0.328118 0.24973,0.66024 0.3589,0.995875 0.10916,0.335748 0.20774,0.674843 0.2956,1.016785 0.0877,0.341893 0.16457,0.686454 0.2306,1.033176 0.0662,0.346717 0.12136,0.695426 0.1656,1.045611 0.0441,0.350234 0.0774,0.70177 0.0995,1.054089 0.0222,0.352433 0.0334,0.705478 0.0334,1.05861 0,0.98112 -0.0857,1.960366 -0.25602,2.926581 -0.16266,0.885962 -0.31077,1.528902 -0.44959,2.447457 1.04711,0.10292 0.7911,0.01754 1.54163,-0.06302 0.75053,-0.08056 1.51433,-0.17872 2.28616,-0.291972 0.77184,-0.113252 1.55205,-0.241928 2.33526,-0.383439 0.78321,-0.14151 1.56973,-0.296135 2.35438,-0.46147 0.78464,-0.165335 1.56738,-0.341341 2.34353,-0.526066 0.77614,-0.184726 1.54549,-0.378061 2.30321,-0.577743 0.75772,-0.199682 1.50359,-0.405778 2.23294,-0.615983 0.72936,-0.210205 1.44215,-0.424493 2.13321,-0.640788 0.69105,-0.216294 1.36066,-0.434207 2.00349,-0.652156 0.64283,-0.21795 1.25916,-0.435952 1.84382,-0.651123 0.58466,-0.215171 1.1376,-0.427662 1.65416,-0.63562 0.51656,-0.207959 0.99652,-0.411403 1.43505,-0.607715 0.43853,-0.196313 0.83542,-0.385625 1.18598,-0.565857 0.35056,-0.180232 0.65477,-0.351362 0.90744,-0.51108 0.25266,-0.159718 0.4541,-0.308097 0.59893,-0.442867 0.0724,-0.06739 0.13055,-0.131403 0.17415,-0.19172 0.0436,-0.06032 0.0722,-0.116804 0.0858,-0.169498 0.0479,-0.47756 0.0734,-0.94507 0.077,-1.401982 0.004,-0.456912 -0.0144,-0.903199 -0.0527,-1.339453 -0.0384,-0.436255 -0.0971,-0.86237 -0.17519,-1.277958 -0.0781,-0.415589 -0.17583,-0.820517 -0.29145,-1.21543 -0.11562,-0.394913 -0.24908,-0.779705 -0.39998,-1.153935 -0.15089,-0.374229 -0.31889,-0.737869 -0.50281,-1.091406 -0.18392,-0.353537 -0.38422,-0.697076 -0.59893,-1.029911 -0.21471,-0.332836 -0.44403,-0.655258 -0.6873,-0.967383 -0.24326,-0.312125 -0.5004,-0.613966 -0.76997,-0.905371 -0.26958,-0.291406 -0.55179,-0.572165 -0.84543,-0.842843 -0.29365,-0.270677 -0.59868,-0.53089 -0.91416,-0.780831 -0.31547,-0.24994 -0.6411,-0.489624 -0.97617,-0.718819 -0.33506,-0.229194 -0.67956,-0.448368 -1.03197,-0.656807 -0.35242,-0.20844 -0.71303,-0.406086 -1.08056,-0.593763 -0.36752,-0.187676 -0.74201,-0.365363 -1.12241,-0.532267 -0.3804,-0.166903 -0.76653,-0.3231 -1.15755,-0.469222 -0.39103,-0.146122 -0.78656,-0.281878 -1.18598,-0.40721 -0.39941,-0.125332 -0.80263,-0.240149 -1.20819,-0.344682 -0.40557,-0.104533 -0.81371,-0.198945 -1.22318,-0.28267 -0.40948,-0.08373 -0.82031,-0.156717 -1.23145,-0.219625 -0.41115,-0.06291 -0.82243,-0.115531 -1.233,-0.157613 -0.41057,-0.04208 -0.82059,-0.07384 -1.22835,-0.09509 -0.40776,-0.02125 -0.81324,-0.03215 -1.21595,-0.03256 l -9e-5,1.5e-5 c -0.40271,-4.04e-4 -0.80244,0.0095 -1.19786,0.02997 -0.39542,0.02045 -0.78665,0.05119 -1.17253,0.0925 -0.38589,0.04131 -0.76639,0.09337 -1.1405,0.155546 -0.37412,0.06218 -0.74215,0.1345 -1.10226,0.217558 -0.36011,0.08306 -0.71241,0.176657 -1.05627,0.280603 -0.34385,0.103946 -0.67922,0.218289 -1.00459,0.343132 -0.32536,0.124842 -0.64053,0.260429 -0.94516,0.406177 -0.30463,0.145747 -0.59839,0.302042 -0.88005,0.468705 -0.28166,0.166662 -0.55125,0.343648 -0.8077,0.531234 -0.56577,0.576793 -1.10762,1.139803 -1.62523,1.689302 -0.5176,0.5495 -1.0114,1.085411 -1.48208,1.608171 -0.47067,0.522759 -0.30868,0.308446 -0.73368,0.80502"
       id="path14"
       sodipodi:nodetypes="ccccccccccccccsccsssssssssssssssscccsssssssssssssssssssssscssssssscssc" />
    <g
       inkscape:label=""
       transform="translate(97.259321,54.88945)"
       id="g18">
      <g
         fill="#000000"
         fill-opacity="1"
         id="g5"
         transform="matrix(0.352778,0,0,0.352778,-1.12201,-0.698721)">
        <g
           id="use4"
           transform="translate(1.993,9.4650002)">
          <path
             d="m 1.578125,-7.125 c 0,-0.171875 0,-0.359375 -0.1875,-0.359375 -0.203125,0 -0.203125,0.1875 -0.203125,0.359375 v 9.265625 c 0,0.171875 0,0.359375 0.203125,0.359375 0.1875,0 0.1875,-0.1875 0.1875,-0.359375 z m 0,0"
             id="path9" />
        </g>
      </g>
      <g
         fill="#000000"
         fill-opacity="1"
         id="g6"
         transform="matrix(0.352778,0,0,0.352778,-1.12201,-0.698721)">
        <g
           id="use5"
           transform="translate(4.7600002,9.4650002)">
          <path
             d="m 1.328125,-0.828125 c 0.53125,-0.578125 0.828125,-0.828125 1.1875,-1.140625 0,0 0.609375,-0.53125 0.96875,-0.890625 C 4.4375,-3.78125 4.65625,-4.265625 4.65625,-4.3125 c 0,-0.09375 -0.09375,-0.09375 -0.109375,-0.09375 -0.078125,0 -0.09375,0.015625 -0.15625,0.109375 -0.296875,0.484375 -0.5,0.640625 -0.734375,0.640625 -0.25,0 -0.359375,-0.15625 -0.515625,-0.328125 -0.1875,-0.21875 -0.359375,-0.421875 -0.6875,-0.421875 -0.75,0 -1.203125,0.921875 -1.203125,1.140625 0,0.046875 0.03125,0.109375 0.109375,0.109375 0.09375,0 0.109375,-0.046875 0.140625,-0.109375 0.1875,-0.46875 0.765625,-0.46875 0.84375,-0.46875 0.203125,0 0.390625,0.0625 0.625,0.140625 0.40625,0.15625 0.515625,0.15625 0.765625,0.15625 -0.359375,0.421875 -1.1875,1.140625 -1.375,1.296875 l -0.90625,0.84375 C 0.78125,-0.625 0.421875,-0.0625 0.421875,0.015625 c 0,0.09375 0.109375,0.09375 0.125,0.09375 0.078125,0 0.09375,-0.015625 0.15625,-0.125 0.234375,-0.359375 0.53125,-0.625 0.859375,-0.625 0.21875,0 0.328125,0.09375 0.578125,0.375 0.15625,0.21875 0.34375,0.375 0.625,0.375 1,0 1.578125,-1.265625 1.578125,-1.53125 0,-0.046875 -0.046875,-0.109375 -0.125,-0.109375 -0.09375,0 -0.109375,0.0625 -0.140625,0.140625 C 3.84375,-0.75 3.203125,-0.5625 2.875,-0.5625 c -0.1875,0 -0.375,-0.0625 -0.578125,-0.125 -0.34375,-0.125 -0.5,-0.171875 -0.703125,-0.171875 -0.015625,0 -0.171875,0 -0.265625,0.03125 z m 0,0"
             id="path10" />
        </g>
      </g>
      <g
         fill="#000000"
         fill-opacity="1"
         id="g7"
         transform="matrix(0.352778,0,0,0.352778,-1.12201,-0.698721)">
        <g
           id="use6"
           transform="translate(9.8310003,9.4650002)">
          <path
             d="m 1.578125,-7.125 c 0,-0.171875 0,-0.359375 -0.1875,-0.359375 -0.203125,0 -0.203125,0.1875 -0.203125,0.359375 v 9.265625 c 0,0.171875 0,0.359375 0.203125,0.359375 0.1875,0 0.1875,-0.1875 0.1875,-0.359375 z m 0,0"
             id="path11" />
        </g>
      </g>
      <g
         fill="#000000"
         fill-opacity="1"
         id="g16"
         transform="matrix(0.352778,0,0,0.352778,-1.12201,-0.698721)">
        <g
           id="use7"
           transform="translate(15.366,9.4650002)">
          <path
             d="m 6.84375,-3.265625 c 0.15625,0 0.34375,0 0.34375,-0.1875 C 7.1875,-3.65625 7,-3.65625 6.859375,-3.65625 h -5.96875 c -0.140625,0 -0.328125,0 -0.328125,0.203125 0,0.1875 0.1875,0.1875 0.328125,0.1875 z m 0.015625,1.9375 c 0.140625,0 0.328125,0 0.328125,-0.203125 0,-0.1875 -0.1875,-0.1875 -0.34375,-0.1875 H 0.890625 c -0.140625,0 -0.328125,0 -0.328125,0.1875 0,0.203125 0.1875,0.203125 0.328125,0.203125 z m 0,0"
             id="path12" />
        </g>
      </g>
      <g
         fill="#000000"
         fill-opacity="1"
         id="g17"
         transform="matrix(0.352778,0,0,0.352778,-1.12201,-0.698721)">
        <g
           id="use8"
           transform="translate(25.884514,9.4650002)">
          <path
             d="m 2.9375,-6.375 c 0,-0.25 0,-0.265625 -0.234375,-0.265625 C 2.078125,-6 1.203125,-6 0.890625,-6 v 0.3125 c 0.203125,0 0.78125,0 1.296875,-0.265625 v 5.171875 c 0,0.359375 -0.03125,0.46875 -0.921875,0.46875 h -0.3125 V 0 c 0.34375,-0.03125 1.203125,-0.03125 1.609375,-0.03125 0.390625,0 1.265625,0 1.609375,0.03125 v -0.3125 h -0.3125 c -0.90625,0 -0.921875,-0.109375 -0.921875,-0.46875 z m 0,0"
             id="path13" />
        </g>
      </g>
    </g>
    <path
       style="fill:none;stroke:#000000;stroke-width:0.264583px"
       d="m 129.38424,57.559113 c 0.0889,0.07668 0.17694,0.154371 0.26407,0.233061 0.23517,0.220847 0.46335,0.449025 0.68419,0.684196 0.22098,0.235422 0.43451,0.477732 0.64027,0.72657 0.20571,0.248662 0.40356,0.503725 0.59325,0.764812 0.18972,0.261059 0.37119,0.528013 0.54415,0.800468 0.17301,0.272443 0.33742,0.550255 0.49299,0.833024 0.15542,0.282993 0.30191,0.5708 0.43925,0.862996 0.13743,0.292007 0.26565,0.588259 0.38448,0.888318 0.11889,0.300002 0.22832,0.603665 0.32814,0.910539 0.0998,0.306979 0.18994,0.617018 0.27027,0.929659 0.0802,0.312596 0.15047,0.627633 0.21084,0.944645 0.0605,0.317007 0.11096,0.635836 0.15141,0.956014 0.0404,0.320223 0.0708,0.641636 0.091,0.963765 0.0203,0.322234 0.0305,0.645027 0.0305,0.9679 0,0.897049 -0.0783,1.792385 -0.23409,2.675806 -0.14872,0.810046 -0.36214,1.606865 -0.63821,2.3828"
       id="path14-6" />
    <path
       style="fill:none;stroke:#000000;stroke-width:0.244428px"
       d="m 128.16536,58.951705 c 0.0822,0.07084 0.16347,0.142612 0.24396,0.215307 0.21725,0.204024 0.42805,0.414821 0.63207,0.632077 0.20414,0.217489 0.40141,0.441341 0.5915,0.671223 0.19003,0.22972 0.37282,0.465353 0.54805,0.706552 0.17527,0.241173 0.34292,0.487791 0.5027,0.739492 0.15983,0.251689 0.31172,0.508338 0.45544,0.769567 0.14358,0.261436 0.27891,0.527319 0.40579,0.797257 0.12696,0.269763 0.24541,0.543447 0.35519,0.82065 0.10983,0.277148 0.21093,0.557679 0.30314,0.841177 0.0922,0.283594 0.17547,0.570016 0.24969,0.858841 0.0741,0.288784 0.13901,0.579823 0.19477,0.872686 0.0559,0.292859 0.10246,0.587401 0.13988,0.883189 0.0373,0.29583 0.0654,0.592758 0.0841,0.890349 0.0187,0.297688 0.0281,0.595892 0.0281,0.89417 0,0.828715 -0.0723,1.655847 -0.21625,2.471974 -0.1374,0.74834 -0.33456,1.48446 -0.5896,2.201287"
       id="path14-8" />
    <g
       inkscape:label=""
       transform="translate(139.82124,46.192632)"
       id="g19">
      <g
         fill="#000000"
         fill-opacity="1"
         id="g3"
         transform="matrix(0.352778,0,0,0.352778,-0.76372,-0.661723)">
        <g
           id="use2"
           transform="translate(1.993,6.2820001)">
          <path
             d="M 0.40625,-2.53125 C 0.796875,-3.671875 1.890625,-3.6875 2,-3.6875 c 1.5,0 1.609375,1.75 1.609375,2.53125 0,0.609375 -0.046875,0.78125 -0.125,0.984375 -0.21875,0.71875 -0.515625,1.875 -0.515625,2.140625 0,0.109375 0.046875,0.171875 0.125,0.171875 0.140625,0 0.21875,-0.21875 0.328125,-0.59375 C 3.65625,0.703125 3.75,0.140625 3.78125,-0.171875 c 0.03125,-0.125 0.046875,-0.25 0.09375,-0.390625 0.3125,-0.984375 0.953125,-2.46875 1.34375,-3.25 0.078125,-0.125 0.1875,-0.34375 0.1875,-0.390625 0,-0.09375 -0.09375,-0.09375 -0.109375,-0.09375 -0.03125,0 -0.09375,0 -0.125,0.0625 C 4.65625,-3.28125 4.25,-2.28125 3.859375,-1.28125 3.84375,-1.578125 3.84375,-2.34375 3.453125,-3.3125 3.203125,-3.921875 2.8125,-4.40625 2.125,-4.40625 c -1.25,0 -1.953125,1.515625 -1.953125,1.828125 0,0.09375 0.09375,0.09375 0.203125,0.09375 z m 0,0"
             id="path4" />
        </g>
      </g>
      <g
         fill="#000000"
         fill-opacity="1"
         id="g4"
         transform="matrix(0.352778,0,0,0.352778,-0.76372,-0.661723)">
        <g
           id="use3"
           transform="translate(7.1500001,7.777)">
          <path
             d="m 2.328125,-4.4375 c 0,-0.1875 0,-0.1875 -0.203125,-0.1875 -0.453125,0.4375 -1.078125,0.4375 -1.359375,0.4375 v 0.25 c 0.15625,0 0.625,0 1,-0.1875 v 3.546875 c 0,0.234375 0,0.328125 -0.6875,0.328125 H 0.8125 V 0 c 0.125,0 0.984375,-0.03125 1.234375,-0.03125 0.21875,0 1.09375,0.03125 1.25,0.03125 V -0.25 H 3.03125 c -0.703125,0 -0.703125,-0.09375 -0.703125,-0.328125 z m 0,0"
             id="path5" />
        </g>
      </g>
    </g>
    <g
       inkscape:label=""
       transform="translate(120.22339,61.685745)"
       id="g24">
      <g
         fill="#000000"
         fill-opacity="1"
         id="g21"
         transform="matrix(0.352778,0,0,0.352778,-0.76372,-0.661723)">
        <g
           id="g20"
           transform="translate(1.993,6.2820001)">
          <path
             d="M 0.40625,-2.53125 C 0.796875,-3.671875 1.890625,-3.6875 2,-3.6875 c 1.5,0 1.609375,1.75 1.609375,2.53125 0,0.609375 -0.046875,0.78125 -0.125,0.984375 -0.21875,0.71875 -0.515625,1.875 -0.515625,2.140625 0,0.109375 0.046875,0.171875 0.125,0.171875 0.140625,0 0.21875,-0.21875 0.328125,-0.59375 C 3.65625,0.703125 3.75,0.140625 3.78125,-0.171875 c 0.03125,-0.125 0.046875,-0.25 0.09375,-0.390625 0.3125,-0.984375 0.953125,-2.46875 1.34375,-3.25 0.078125,-0.125 0.1875,-0.34375 0.1875,-0.390625 0,-0.09375 -0.09375,-0.09375 -0.109375,-0.09375 -0.03125,0 -0.09375,0 -0.125,0.0625 C 4.65625,-3.28125 4.25,-2.28125 3.859375,-1.28125 3.84375,-1.578125 3.84375,-2.34375 3.453125,-3.3125 3.203125,-3.921875 2.8125,-4.40625 2.125,-4.40625 c -1.25,0 -1.953125,1.515625 -1.953125,1.828125 0,0.09375 0.09375,0.09375 0.203125,0.09375 z m 0,0"
             id="path19" />
        </g>
      </g>
      <g
         fill="#000000"
         fill-opacity="1"
         id="g23"
         transform="matrix(0.352778,0,0,0.352778,-0.76372,-0.661723)">
        <g
           id="g22"
           transform="translate(7.1500001,7.777)">
          <path
             d="M 3.515625,-1.265625 H 3.28125 c -0.015625,0.15625 -0.09375,0.5625 -0.1875,0.625 C 3.046875,-0.59375 2.515625,-0.59375 2.40625,-0.59375 H 1.125 c 0.734375,-0.640625 0.984375,-0.84375 1.390625,-1.171875 0.515625,-0.40625 1,-0.84375 1,-1.5 0,-0.84375 -0.734375,-1.359375 -1.625,-1.359375 -0.859375,0 -1.453125,0.609375 -1.453125,1.25 0,0.34375 0.296875,0.390625 0.375,0.390625 0.15625,0 0.359375,-0.125 0.359375,-0.375 0,-0.125 -0.046875,-0.375 -0.40625,-0.375 C 0.984375,-4.21875 1.453125,-4.375 1.78125,-4.375 c 0.703125,0 1.0625,0.546875 1.0625,1.109375 0,0.609375 -0.4375,1.078125 -0.65625,1.328125 L 0.515625,-0.265625 C 0.4375,-0.203125 0.4375,-0.1875 0.4375,0 h 2.875 z m 0,0"
             id="path21" />
        </g>
      </g>
    </g>
    <path
       style="fill:none;stroke:#000000;stroke-width:0.264583px;stroke-linecap:butt;stroke-linejoin:miter;stroke-opacity:1"
       d="m 154.42212,52.795043 -0.70622,-1.070221 1.48671,-0.03731"
       id="path28" />
    <path
       style="fill:none;stroke:#000000;stroke-width:0.264583px;stroke-linecap:butt;stroke-linejoin:miter;stroke-opacity:1"
       d="m 122.8203,68.854663 0.62959,1.347557 0.52773,-1.353005"
       id="path29" />
    <g
       inkscape:label=""
       transform="translate(136.97689,77.632025)"
       id="g1">
      <g
         fill="#000000"
         fill-opacity="1"
         id="g2"
         transform="matrix(0.352778,0,0,0.352778,-0.868451,-0.700308)">
        <g
           id="use1"
           transform="translate(1.993,6.2820001)">
          <path
             d="m 3.9892336,0.0119476 c 0.15625,0 0.34375,0 0.34375,-0.171875 0,-0.140625 -0.125,-0.140625 -0.296875,-0.140625 h -1.609375 c 0.234375,-0.84375 0.796875,-1.421875 1.703125,-1.421875 h 0.3125 c 0.171875,0 0.328125,0 0.328125,-0.171875 0,-0.140625 -0.125,-0.140625 -0.296875,-0.140625 h -0.359375 c -1.296875,0 -2.625,1 -2.625,2.515625 0,1.109375 0.75,1.890625 1.796875,1.890625 0.65625,0 1.296875,-0.40625 1.296875,-0.515625 0,-0.015625 0,-0.125 -0.09375,-0.125 -0.015625,0 -0.046875,0 -0.125,0.046875 -0.3125,0.203125 -0.6875,0.375 -1.046875,0.375 -0.578125,0 -1.078125,-0.421875 -1.078125,-1.296875 0,-0.34375 0.078125,-0.734375 0.109375,-0.84375 z m 0,0"
             id="path2" />
        </g>
      </g>
    </g>
    <path
       style="fill:none;stroke:#000000;stroke-width:0.165;stroke-linecap:butt;stroke-linejoin:miter;stroke-dasharray:none;stroke-opacity:1;marker-end:url(#DartArrow)"
       d="m 136.67999,79.119634 c -1.89804,0.546793 -2.08793,-2.53386 -2.08891,-2.582323"
       id="path1"
       sodipodi:nodetypes="cc" />
  </g>
</svg>
