<?xml version="1.0" encoding="UTF-8" standalone="no"?>
<!-- Created with Inkscape (http://www.inkscape.org/) -->

<svg
   width="100.78524mm"
   height="82.332741mm"
   viewBox="0 0 100.78524 82.332741"
   version="1.1"
   id="svg1"
   inkscape:version="1.3 (0e150ed6c4, 2023-07-21)"
   sodipodi:docname="problem_7.svg"
   inkscape:export-filename="problem_7.png"
   inkscape:export-xdpi="253.42"
   inkscape:export-ydpi="253.42"
   xmlns:inkscape="http://www.inkscape.org/namespaces/inkscape"
   xmlns:sodipodi="http://sodipodi.sourceforge.net/DTD/sodipodi-0.dtd"
   xmlns="http://www.w3.org/2000/svg"
   xmlns:svg="http://www.w3.org/2000/svg">
  <sodipodi:namedview
     id="namedview1"
     pagecolor="#505050"
     bordercolor="#eeeeee"
     borderopacity="1"
     inkscape:showpageshadow="0"
     inkscape:pageopacity="0"
     inkscape:pagecheckerboard="0"
     inkscape:deskcolor="#d1d1d1"
     inkscape:document-units="mm"
     inkscape:zoom="17.093731"
     inkscape:cx="187.32013"
     inkscape:cy="156.78262"
     inkscape:window-width="1910"
     inkscape:window-height="1016"
     inkscape:window-x="1923"
     inkscape:window-y="59"
     inkscape:window-maximized="1"
     inkscape:current-layer="layer1"
     showgrid="false" />
  <defs
     id="defs1">
    <marker
       style="overflow:visible"
       id="ArrowWideRounded"
       refX="0"
       refY="0"
       orient="auto-start-reverse"
       inkscape:stockid="Wide, rounded arrow"
       markerWidth="1"
       markerHeight="1"
       viewBox="0 0 1 1"
       inkscape:isstock="true"
       inkscape:collect="always"
       preserveAspectRatio="xMidYMid">
      <path
         style="fill:none;stroke:context-stroke;stroke-width:1;stroke-linecap:round"
         d="M 3,-3 0,0 3,3"
         transform="rotate(180,0.125,0)"
         sodipodi:nodetypes="ccc"
         id="path20" />
    </marker>
  </defs>
  <g
     inkscape:label="Layer 1"
     inkscape:groupmode="layer"
     id="layer1"
     transform="translate(-42.9864, -30.4708)">
    <path
       style="fill:none;stroke:#000000;stroke-width:0.266174;stroke-linecap:butt;stroke-linejoin:miter;stroke-dasharray:none;stroke-opacity:1"
       d="m 43.185807,77.266336 c 0,0 10.467999,-58.517912 58.088363,-44.491901 47.62036,14.026012 42.17622,38.105688 42.17622,38.105688 0,0 -4.99907,48.930127 -54.536146,40.901507 C 39.377162,103.75301 43.185807,77.266336 43.185807,77.266336 Z"
       id="path1" />
    <path
       style="fill:none;stroke:#000000;stroke-width:0.266174;stroke-linecap:butt;stroke-linejoin:miter;stroke-dasharray:none;stroke-opacity:1"
       d="m 52.004039,78.680555 61.740871,-31.146562 2.1652,46.523389 z"
       id="path2" />
    <circle
       style="opacity:0.998;fill:none;fill-rule:evenodd;stroke:#000000;stroke-width:0.265;stroke-linecap:round;stroke-linejoin:bevel;stroke-dasharray:none"
       id="path3-5"
       cx="93.079979"
       cy="73.079979"
       r="3" />
    <circle
       style="opacity:0.998;fill:#000000;fill-opacity:1;fill-rule:evenodd;stroke:#000000;stroke-width:0.165992;stroke-linecap:round;stroke-linejoin:bevel;stroke-dasharray:none"
       id="path4"
       cx="93.026382"
       cy="73.080971"
       r="0.15000001" />
    <path
       style="fill:none;stroke:#000000;stroke-width:0.264583px;stroke-linecap:butt;stroke-linejoin:miter;stroke-opacity:1"
       d="M 115.92342,94.022774 95.306818,75.127836"
       id="path6" />
    <path
       style="fill:none;stroke:#000000;stroke-width:0.264583px;stroke-linecap:butt;stroke-linejoin:miter;stroke-opacity:1"
       d="M 90.893605,71.114154 82.435921,63.35524"
       id="path7" />
    <g
       inkscape:label=""
       transform="translate(98.080939,70.993115)"
       id="g9">
      <g
         fill="#000000"
         fill-opacity="1"
         id="g2"
         transform="matrix(0.352778,0,0,0.352778,-0.84089,-0.700793)">
        <g
           id="use1"
           transform="translate(1.993,5.4239998)">
          <path
             d="m 2.546875,-1.796875 c 0.125,0 0.265625,0 0.265625,-0.125 0,-0.140625 -0.109375,-0.140625 -0.25,-0.140625 h -1.375 c 0.125,-0.375 0.4375,-1.109375 1.421875,-1.109375 h 0.28125 c 0.140625,0 0.265625,0 0.265625,-0.140625 0,-0.125 -0.109375,-0.125 -0.25,-0.125 H 2.578125 c -1,0 -2.1875,0.71875 -2.1875,1.984375 0,0.9375 0.703125,1.53125 1.5625,1.53125 0.546875,0 1.125,-0.3125 1.125,-0.421875 0,-0.015625 -0.015625,-0.140625 -0.109375,-0.140625 -0.03125,0 -0.046875,0 -0.078125,0.03125 C 2.75,-0.359375 2.375,-0.140625 1.96875,-0.140625 1.5,-0.140625 1.046875,-0.46875 1.046875,-1.1875 c 0,-0.046875 0,-0.265625 0.078125,-0.609375 z m 0,0"
             id="path9" />
        </g>
      </g>
    </g>
    <path
       style="fill:none;stroke:#000000;stroke-width:0.264583px;stroke-linecap:butt;stroke-linejoin:miter;stroke-dasharray:0.529166, 0.264583;stroke-dashoffset:0;stroke-opacity:1"
       d="m 92.966081,73.070838 3.113135,0.544812"
       id="path10" />
    <g
       inkscape:label=""
       transform="translate(101.65806,48.159807)"
       id="g11">
      <g
         fill="#000000"
         fill-opacity="1"
         id="g3"
         transform="matrix(0.352778,0,0,0.352778,-0.752695,-0.673232)">
        <g
           id="use2"
           transform="translate(1.993,5.4239998)">
          <path
             d="m 3.265625,-1.28125 c -0.09375,-0.984375 -0.5,-1.625 -0.5,-1.640625 -0.171875,-0.265625 -0.46875,-0.59375 -1,-0.59375 -1.03125,0 -1.625,1.15625 -1.625,1.4375 0,0.0625 0.0625,0.09375 0.125,0.09375 0.078125,0 0.09375,-0.03125 0.125,-0.09375 0.234375,-0.703125 1.03125,-0.8125 1.265625,-0.8125 1.28125,0 1.375,1.390625 1.375,2.046875 0,0.453125 -0.015625,0.515625 -0.078125,0.703125 -0.171875,0.5625 -0.40625,1.453125 -0.40625,1.671875 0,0.015625 0,0.1875 0.125,0.1875 0.09375,0 0.171875,-0.125 0.234375,-0.328125 C 3.125,0.65625 3.203125,0.125 3.25,-0.234375 c 0.03125,-0.15625 0.46875,-1.5 1.21875,-2.890625 0.09375,-0.171875 0.09375,-0.1875 0.09375,-0.21875 0,0 0,-0.09375 -0.125,-0.09375 -0.03125,0 -0.0625,0.015625 -0.09375,0.03125 C 4.3125,-3.375 3.6875,-2.203125 3.296875,-1.109375 Z m 0,0"
             id="path11" />
        </g>
      </g>
      <g
         fill="#000000"
         fill-opacity="1"
         id="g4"
         transform="matrix(0.352778,0,0,0.352778,-0.752695,-0.673232)">
        <g
           id="use3"
           transform="translate(6.3540001,6.5310001)">
          <path
             d="m 2.140625,-3.796875 c 0,-0.1875 -0.015625,-0.1875 -0.203125,-0.1875 -0.390625,0.390625 -1,0.390625 -1.21875,0.390625 v 0.234375 c 0.15625,0 0.5625,0 0.921875,-0.171875 v 3.015625 c 0,0.203125 0,0.28125 -0.625,0.28125 h -0.25 V 0 c 0.328125,-0.03125 0.796875,-0.03125 1.125,-0.03125 0.328125,0 0.796875,0 1.125,0.03125 v -0.234375 h -0.25 c -0.625,0 -0.625,-0.078125 -0.625,-0.28125 z m 0,0"
             id="path5" />
        </g>
      </g>
    </g>
    <g
       inkscape:label=""
       transform="translate(75.550374,87.645134)"
       id="g16">
      <g
         fill="#000000"
         fill-opacity="1"
         id="g13"
         transform="matrix(0.352778,0,0,0.352778,-0.752695,-0.673232)">
        <g
           id="g12"
           transform="translate(1.993,5.4239998)">
          <path
             d="m 3.265625,-1.28125 c -0.09375,-0.984375 -0.5,-1.625 -0.5,-1.640625 -0.171875,-0.265625 -0.46875,-0.59375 -1,-0.59375 -1.03125,0 -1.625,1.15625 -1.625,1.4375 0,0.0625 0.0625,0.09375 0.125,0.09375 0.078125,0 0.09375,-0.03125 0.125,-0.09375 0.234375,-0.703125 1.03125,-0.8125 1.265625,-0.8125 1.28125,0 1.375,1.390625 1.375,2.046875 0,0.453125 -0.015625,0.515625 -0.078125,0.703125 -0.171875,0.5625 -0.40625,1.453125 -0.40625,1.671875 0,0.015625 0,0.1875 0.125,0.1875 0.09375,0 0.171875,-0.125 0.234375,-0.328125 C 3.125,0.65625 3.203125,0.125 3.25,-0.234375 c 0.03125,-0.15625 0.46875,-1.5 1.21875,-2.890625 0.09375,-0.171875 0.09375,-0.1875 0.09375,-0.21875 0,0 0,-0.09375 -0.125,-0.09375 -0.03125,0 -0.0625,0.015625 -0.09375,0.03125 C 4.3125,-3.375 3.6875,-2.203125 3.296875,-1.109375 Z m 0,0"
             id="path12" />
        </g>
      </g>
      <g
         fill="#000000"
         fill-opacity="1"
         id="g15"
         transform="matrix(0.352778,0,0,0.352778,-0.752695,-0.673232)">
        <g
           id="g14"
           transform="translate(6.3540001,6.5310001)">
          <path
             d="M 3.21875,-1.125 H 3 C 2.984375,-1.03125 2.921875,-0.640625 2.84375,-0.578125 2.796875,-0.53125 2.3125,-0.53125 2.21875,-0.53125 H 1.109375 L 1.875,-1.15625 C 2.078125,-1.328125 2.609375,-1.703125 2.796875,-1.890625 2.96875,-2.0625 3.21875,-2.375 3.21875,-2.796875 c 0,-0.75 -0.671875,-1.1875 -1.484375,-1.1875 -0.765625,0 -1.296875,0.515625 -1.296875,1.078125 0,0.296875 0.25,0.34375 0.3125,0.34375 0.15625,0 0.328125,-0.109375 0.328125,-0.328125 C 1.078125,-3.015625 1,-3.21875 0.734375,-3.21875 0.875,-3.515625 1.234375,-3.75 1.65625,-3.75 c 0.625,0 0.953125,0.46875 0.953125,0.953125 0,0.421875 -0.28125,0.859375 -0.6875,1.25 L 0.5,-0.25 C 0.4375,-0.1875 0.4375,-0.1875 0.4375,0 h 2.59375 z m 0,0"
             id="path13" />
        </g>
      </g>
    </g>
    <path
       style="fill:none;stroke:#000000;stroke-width:0.264583px;stroke-linecap:butt;stroke-linejoin:miter;stroke-opacity:1"
       d="m 96.675246,55.383171 2.006039,-0.192954 -1.423004,1.35192"
       id="path16"
       sodipodi:nodetypes="ccc" />
    <path
       style="fill:none;stroke:#000000;stroke-width:0.264583px;stroke-linecap:butt;stroke-linejoin:miter;stroke-opacity:1"
       d="m 115.36137,68.83117 -0.54189,1.941072 -0.74922,-1.814202"
       id="path16-5"
       sodipodi:nodetypes="ccc" />
    <path
       style="fill:none;stroke:#000000;stroke-width:0.264583px;stroke-linecap:butt;stroke-linejoin:miter;stroke-opacity:1"
       d="m 87.064884,87.79735 -1.691524,-1.095515 1.955023,-0.17477"
       id="path16-5-8"
       sodipodi:nodetypes="ccc" />
    <path
       style="fill:none;stroke:#000000;stroke-width:0.264583px;stroke-linecap:butt;stroke-linejoin:miter;stroke-opacity:1"
       d="m 68.472227,69.600707 2.004876,-0.204641 -1.415128,1.360173"
       id="path16-5-89"
       sodipodi:nodetypes="ccc" />
    <path
       style="fill:none;stroke:#000000;stroke-width:0.264583px;stroke-linecap:butt;stroke-linejoin:miter;stroke-opacity:1"
       d="m 106.83401,86.640633 -0.88318,-1.811472 1.76462,0.85953"
       id="path16-1"
       sodipodi:nodetypes="ccc" />
    <path
       style="fill:none;stroke:#000000;stroke-width:0.264583px;stroke-linecap:butt;stroke-linejoin:miter;stroke-opacity:1"
       d="m 103.21105,81.411288 0.90777,1.799256 -1.77615,-0.835386"
       id="path16-7"
       sodipodi:nodetypes="ccc" />
    <path
       style="fill:none;stroke:#000000;stroke-width:0.264583px;stroke-linecap:butt;stroke-linejoin:miter;stroke-opacity:1"
       d="m 87.844779,69.261342 -0.932898,-1.786376 1.787697,0.810441"
       id="path16-1-5"
       sodipodi:nodetypes="ccc" />
    <path
       style="fill:none;stroke:#000000;stroke-width:0.264583px;stroke-linecap:butt;stroke-linejoin:miter;stroke-opacity:1"
       d="m 84.343105,64.123527 0.90777,1.799256 -1.77615,-0.835386"
       id="path16-7-9"
       sodipodi:nodetypes="ccc" />
    <path
       style="fill:none;stroke:#000000;stroke-width:0.264583px;stroke-linecap:butt;stroke-linejoin:miter;stroke-opacity:1"
       d="m 95.132196,71.649346 -0.427051,-1.107618 1.101381,0.297604"
       id="path17" />
    <path
       style="fill:none;stroke:#000000;stroke-width:0.264583px;stroke-linecap:butt;stroke-linejoin:miter;stroke-opacity:1"
       d="m 90.787773,74.227489 0.427051,1.107618 -1.101381,-0.297604"
       id="path17-0" />
    <g
       inkscape:label=""
       transform="translate(90.578667,76.823706)"
       id="g22">
      <g
         fill="#000000"
         fill-opacity="1"
         id="g19"
         transform="matrix(0.352778,0,0,0.352778,-0.752695,-0.673232)">
        <g
           id="g18"
           transform="translate(1.993,5.4239998)">
          <path
             d="m 3.265625,-1.28125 c -0.09375,-0.984375 -0.5,-1.625 -0.5,-1.640625 -0.171875,-0.265625 -0.46875,-0.59375 -1,-0.59375 -1.03125,0 -1.625,1.15625 -1.625,1.4375 0,0.0625 0.0625,0.09375 0.125,0.09375 0.078125,0 0.09375,-0.03125 0.125,-0.09375 0.234375,-0.703125 1.03125,-0.8125 1.265625,-0.8125 1.28125,0 1.375,1.390625 1.375,2.046875 0,0.453125 -0.015625,0.515625 -0.078125,0.703125 -0.171875,0.5625 -0.40625,1.453125 -0.40625,1.671875 0,0.015625 0,0.1875 0.125,0.1875 0.09375,0 0.171875,-0.125 0.234375,-0.328125 C 3.125,0.65625 3.203125,0.125 3.25,-0.234375 c 0.03125,-0.15625 0.46875,-1.5 1.21875,-2.890625 0.09375,-0.171875 0.09375,-0.1875 0.09375,-0.21875 0,0 0,-0.09375 -0.125,-0.09375 -0.03125,0 -0.0625,0.015625 -0.09375,0.03125 C 4.3125,-3.375 3.6875,-2.203125 3.296875,-1.109375 Z m 0,0"
             id="path18" />
        </g>
      </g>
      <g
         fill="#000000"
         fill-opacity="1"
         id="g21"
         transform="matrix(0.352778,0,0,0.352778,-0.752695,-0.673232)">
        <g
           id="g20"
           transform="translate(6.3540001,6.4200001)">
          <path
             d="m 2.25,-1.328125 c 0.09375,0 0.21875,0 0.21875,-0.125 C 2.46875,-1.5625 2.359375,-1.5625 2.25,-1.5625 H 1.125 C 1.328125,-2.140625 1.765625,-2.34375 2.25,-2.34375 H 2.5 c 0.09375,0 0.21875,0 0.21875,-0.125 0,-0.109375 -0.078125,-0.109375 -0.203125,-0.109375 h -0.28125 c -0.78125,0 -1.75,0.515625 -1.75,1.453125 0,0.71875 0.59375,1.1875 1.3125,1.1875 0.4375,0 0.921875,-0.234375 0.921875,-0.34375 0,-0.046875 -0.03125,-0.125 -0.09375,-0.125 -0.015625,0 -0.03125,0 -0.09375,0.046875 -0.1875,0.109375 -0.4375,0.21875 -0.71875,0.21875 -0.28125,0 -0.796875,-0.125 -0.796875,-0.8125 0,-0.046875 0,-0.171875 0.03125,-0.375 z m 0,0"
             id="path19" />
        </g>
      </g>
    </g>
    <g
       inkscape:label=""
       transform="translate(91.731436,71.313942)"
       id="g7">
      <g
         fill="#000000"
         fill-opacity="1"
         id="g6"
         transform="matrix(0.352778,0,0,0.352778,-0.785768,-0.673232)">
        <g
           id="g5"
           transform="translate(1.993,5.4239998)">
          <path
             d="m 3.90625,-2.609375 c 0.046875,-0.1875 0.140625,-0.53125 0.140625,-0.578125 0,-0.203125 -0.171875,-0.25 -0.265625,-0.25 -0.28125,0 -0.328125,0.203125 -0.421875,0.5625 -0.09375,0.421875 -0.125,0.578125 -0.25,1.03125 C 3.03125,-1.546875 2.9375,-1.171875 2.9375,-0.9375 c 0,0.03125 0.015625,0.09375 0.015625,0.140625 0,0.015625 -0.21875,0.65625 -0.75,0.65625 -0.3125,0 -0.671875,-0.125 -0.671875,-0.71875 0,-0.390625 0.1875,-0.90625 0.4375,-1.5625 C 2.046875,-2.625 2.078125,-2.6875 2.078125,-2.84375 c 0,-0.4375 -0.359375,-0.671875 -0.71875,-0.671875 -0.796875,0 -1.125,1.125 -1.125,1.21875 0,0.078125 0.0625,0.109375 0.125,0.109375 0.109375,0 0.109375,-0.046875 0.140625,-0.125 0.203125,-0.703125 0.546875,-0.984375 0.828125,-0.984375 0.125,0 0.1875,0.078125 0.1875,0.265625 0,0.171875 -0.0625,0.359375 -0.109375,0.5 -0.3125,0.796875 -0.453125,1.21875 -0.453125,1.5625 0,0.8125 0.671875,1.046875 1.21875,1.046875 0.125,0 0.546875,0 0.875,-0.53125 0.21875,0.4375 0.71875,0.53125 1.0625,0.53125 0.71875,0 1.046875,-0.671875 1.203125,-0.953125 0.25,-0.515625 0.53125,-1.5625 0.53125,-2.03125 0,-0.609375 -0.359375,-0.609375 -0.390625,-0.609375 -0.1875,0 -0.421875,0.203125 -0.421875,0.40625 0,0.109375 0.046875,0.171875 0.109375,0.21875 0.09375,0.078125 0.328125,0.28125 0.328125,0.671875 0,0.234375 -0.21875,0.984375 -0.453125,1.390625 -0.21875,0.40625 -0.484375,0.6875 -0.875,0.6875 -0.359375,0 -0.625,-0.1875 -0.625,-0.703125 0,-0.203125 0.046875,-0.421875 0.171875,-0.875 z m 0,0"
             id="path3" />
        </g>
      </g>
    </g>
    <path
       style="fill:none;stroke:#000000;stroke-width:0.125;stroke-linecap:butt;stroke-linejoin:miter;stroke-opacity:1;stroke-dasharray:none;marker-end:url(#ArrowWideRounded)"
       d="m 97.566605,71.858933 c 0,0 -1.252874,-0.601046 -2.537273,1.106585"
       id="path15" />
  </g>
</svg>
