<?xml version="1.0" encoding="UTF-8" standalone="no"?>
<!-- Created with Inkscape (http://www.inkscape.org/) -->

<svg
   width="31.124395mm"
   height="24.179184mm"
   viewBox="0 0 31.124395 24.179184"
   version="1.1"
   id="svg1"
   inkscape:version="1.3 (0e150ed6c4, 2023-07-21)"
   sodipodi:docname="problem_3.svg"
   inkscape:export-filename="problem_3.png"
   inkscape:export-xdpi="253.42"
   inkscape:export-ydpi="253.42"
   xmlns:inkscape="http://www.inkscape.org/namespaces/inkscape"
   xmlns:sodipodi="http://sodipodi.sourceforge.net/DTD/sodipodi-0.dtd"
   xmlns="http://www.w3.org/2000/svg"
   xmlns:svg="http://www.w3.org/2000/svg">
  <sodipodi:namedview
     id="namedview1"
     pagecolor="#505050"
     bordercolor="#eeeeee"
     borderopacity="1"
     inkscape:showpageshadow="0"
     inkscape:pageopacity="0"
     inkscape:pagecheckerboard="0"
     inkscape:deskcolor="#d1d1d1"
     inkscape:document-units="mm"
     inkscape:zoom="2.7919841"
     inkscape:cx="27.399869"
     inkscape:cy="32.593309"
     inkscape:window-width="1910"
     inkscape:window-height="1034"
     inkscape:window-x="3843"
     inkscape:window-y="41"
     inkscape:window-maximized="1"
     inkscape:current-layer="layer1" />
  <defs
     id="defs1">
    <inkscape:path-effect
       effect="spiro"
       id="path-effect6"
       is_visible="true"
       lpeversion="1" />
    <inkscape:path-effect
       effect="bspline"
       id="path-effect5"
       is_visible="true"
       lpeversion="1.3"
       weight="33.333333"
       steps="2"
       helper_size="0"
       apply_no_weight="true"
       apply_with_weight="true"
       only_selected="false"
       uniform="false" />
    <marker
       style="overflow:visible"
       id="ArrowWideHeavy"
       refX="0"
       refY="0"
       orient="auto-start-reverse"
       inkscape:stockid="Wide, heavy arrow"
       markerWidth="1"
       markerHeight="1"
       viewBox="0 0 1 1"
       inkscape:isstock="true"
       inkscape:collect="always"
       preserveAspectRatio="xMidYMid">
      <path
         style="fill:context-stroke;fill-rule:evenodd;stroke:none"
         d="m 1,0 -3,3 h -2 l 3,-3 -3,-3 h 2 z"
         id="path3" />
    </marker>
  </defs>
  <g
     inkscape:label="Layer 1"
     inkscape:groupmode="layer"
     id="layer1"
     transform="translate(-39.799689,-75.224685)">
    <path
       style="fill:none;stroke:#000000;stroke-width:0.264583px;stroke-linecap:butt;stroke-linejoin:miter;stroke-opacity:1;marker-start:url(#ArrowWideHeavy);marker-end:url(#ArrowWideHeavy)"
       d="M 40.593438,75.489268 V 96.712891 H 70.659502"
       id="path1"
       sodipodi:nodetypes="ccc" />
    <path
       style="fill:none;stroke:#000000;stroke-width:0.264583px;stroke-linecap:butt;stroke-linejoin:miter;stroke-opacity:1;marker-end:url(#ArrowWideHeavy)"
       d="M 40.664288,96.65967 66.414294,78.566475"
       id="path2"
       sodipodi:nodetypes="cc" />
    <path
       style="opacity:0.998;fill:none;fill-rule:evenodd;stroke:#000000;stroke-width:0.265;stroke-linecap:round;stroke-linejoin:bevel;stroke-dasharray:none"
       id="path6"
       sodipodi:type="arc"
       sodipodi:cx="40.593071"
       sodipodi:cy="96.681976"
       sodipodi:rx="21.109131"
       sodipodi:ry="21.109131"
       sodipodi:start="5.6720567"
       sodipodi:end="0"
       sodipodi:arc-type="slice"
       d="m 57.881469,84.569723 a 21.109131,21.109131 0 0 1 3.820733,12.112253 H 40.593071 Z" />
    <g
       inkscape:label=""
       transform="translate(45.19047,94.415698)"
       id="g7">
      <g
         fill="#000000"
         fill-opacity="1"
         id="g2"
         transform="matrix(0.352778,0,0,0.352778,-0.747183,-0.673232)">
        <g
           id="use1"
           transform="translate(1.993,5.4239998)">
          <path
             d="m 5.109375,-2.921875 c 0,-0.234375 -0.078125,-0.59375 -0.390625,-0.59375 -0.203125,0 -0.421875,0.1875 -0.421875,0.421875 0,0.109375 0.09375,0.1875 0.1875,0.265625 0.109375,0.125 0.234375,0.328125 0.234375,0.625 0,0.53125 -0.546875,1.65625 -1.34375,1.65625 -0.421875,0 -0.703125,-0.234375 -0.796875,-0.625 C 2.703125,-1.4375 2.875,-1.875 2.875,-2.109375 c 0,-0.125 -0.0625,-0.234375 -0.21875,-0.234375 -0.359375,0 -0.40625,0.890625 -0.40625,1.140625 -0.28125,0.328125 -0.609375,0.65625 -1.078125,0.65625 -0.5,0 -0.734375,-0.40625 -0.734375,-0.875 0,-0.375 0.09375,-0.703125 0.25,-1.015625 0.234375,-0.46875 0.546875,-0.765625 0.546875,-0.890625 0,-0.09375 -0.078125,-0.15625 -0.15625,-0.15625 -0.15625,0 -0.265625,0.234375 -0.359375,0.375 -0.34375,0.5625 -0.59375,1.3125 -0.59375,1.96875 0,0.609375 0.234375,1.21875 0.9375,1.21875 0.6875,0 1.078125,-0.5625 1.25,-0.78125 0.125,0.4375 0.4375,0.78125 0.9375,0.78125 0.640625,0 0.96875,-0.421875 1.296875,-0.96875 0.265625,-0.421875 0.5625,-1.53125 0.5625,-2.03125 z m 0,0"
             id="path7" />
        </g>
      </g>
    </g>
    <g
       inkscape:label=""
       transform="translate(60.592661,97.359583)"
       id="g10">
      <g
         fill="#000000"
         fill-opacity="1"
         id="g9"
         transform="matrix(0.352778,0,0,0.352778,-0.846402,-0.705732)">
        <g
           id="g8"
           transform="translate(1.993,7.4380002)">
          <path
             d="M 3.09375,-4.890625 C 3.15625,-5.15625 3.171875,-5.171875 3.5,-5.171875 h 0.640625 c 0.65625,0 1.265625,0.15625 1.265625,0.8125 0,0.34375 -0.171875,0.90625 -0.546875,1.15625 -0.375,0.28125 -0.828125,0.359375 -1.296875,0.359375 H 2.578125 Z m 1.359375,2.1875 c 0.96875,-0.25 1.734375,-0.84375 1.734375,-1.53125 0,-0.6875 -0.78125,-1.203125 -1.890625,-1.203125 h -2.34375 c -0.140625,0 -0.25,0 -0.25,0.140625 0,0.125 0.109375,0.125 0.234375,0.125 0.265625,0 0.5,0 0.5,0.125 0,0.03125 -0.015625,0.03125 -0.03125,0.140625 L 1.328125,-0.625 C 1.265625,-0.328125 1.25,-0.265625 0.65625,-0.265625 c -0.15625,0 -0.25,0 -0.25,0.15625 C 0.40625,-0.078125 0.4375,0 0.53125,0 0.6875,0 0.875,-0.015625 1.03125,-0.03125 H 1.515625 C 2.265625,-0.03125 2.5,0 2.546875,0 c 0.046875,0 0.15625,0 0.15625,-0.15625 0,-0.109375 -0.109375,-0.109375 -0.234375,-0.109375 -0.03125,0 -0.171875,0 -0.3125,-0.015625 -0.171875,-0.015625 -0.1875,-0.03125 -0.1875,-0.109375 0,-0.046875 0.015625,-0.09375 0.03125,-0.125 l 0.515625,-2.09375 h 1.03125 c 0.71875,0 0.953125,0.375 0.953125,0.703125 0,0.109375 -0.0625,0.34375 -0.09375,0.5 C 4.328125,-1.171875 4.25,-0.859375 4.25,-0.703125 c 0,0.609375 0.53125,0.875 1.125,0.875 0.6875,0 1.015625,-0.78125 1.015625,-0.9375 0,-0.03125 -0.03125,-0.109375 -0.125,-0.109375 -0.09375,0 -0.109375,0.0625 -0.125,0.109375 C 5.96875,-0.21875 5.625,-0.0625 5.390625,-0.0625 5.09375,-0.0625 5.0625,-0.28125 5.0625,-0.546875 c 0,-0.265625 0.046875,-0.609375 0.078125,-0.875 0.03125,-0.234375 0.03125,-0.28125 0.03125,-0.359375 0,-0.484375 -0.296875,-0.765625 -0.71875,-0.921875 z m 0,0"
             id="path8" />
        </g>
      </g>
    </g>
    <path
       style="fill:none;stroke:#000000;stroke-width:0.264583px;stroke-linecap:butt;stroke-linejoin:miter;stroke-opacity:1"
       d="m 52.121609,96.148175 1.676371,0.526592 -1.670148,0.555011"
       id="path10" />
    <path
       style="fill:none;stroke:#000000;stroke-width:0.264583px;stroke-linecap:butt;stroke-linejoin:miter;stroke-opacity:1"
       d="m 52.095087,89.312009 -1.674876,0.531323 1.048788,-1.41332"
       id="path10-5" />
    <path
       style="fill:none;stroke:#000000;stroke-width:0.264583px;stroke-linecap:butt;stroke-linejoin:miter;stroke-opacity:1"
       d="m 60.347616,91.301905 0.250031,-1.269495 1.08684,0.940364"
       id="path11" />
    <g
       inkscape:label=""
       transform="translate(48.37521,97.557296)"
       id="g11">
      <g
         fill="#000000"
         fill-opacity="1"
         id="g3"
         transform="matrix(0.352778,0,0,0.352778,-0.752695,-0.673232)">
        <g
           id="use2"
           transform="translate(1.993,5.4239998)">
          <path
             d="m 3.265625,-1.28125 c -0.09375,-0.984375 -0.5,-1.625 -0.5,-1.640625 -0.171875,-0.265625 -0.46875,-0.59375 -1,-0.59375 -1.03125,0 -1.625,1.15625 -1.625,1.4375 0,0.0625 0.0625,0.09375 0.125,0.09375 0.078125,0 0.09375,-0.03125 0.125,-0.09375 0.234375,-0.703125 1.03125,-0.8125 1.265625,-0.8125 1.28125,0 1.375,1.390625 1.375,2.046875 0,0.453125 -0.015625,0.515625 -0.078125,0.703125 -0.171875,0.5625 -0.40625,1.453125 -0.40625,1.671875 0,0.015625 0,0.1875 0.125,0.1875 0.09375,0 0.171875,-0.125 0.234375,-0.328125 C 3.125,0.65625 3.203125,0.125 3.25,-0.234375 c 0.03125,-0.15625 0.46875,-1.5 1.21875,-2.890625 0.09375,-0.171875 0.09375,-0.1875 0.09375,-0.21875 0,0 0,-0.09375 -0.125,-0.09375 -0.03125,0 -0.0625,0.015625 -0.09375,0.03125 C 4.3125,-3.375 3.6875,-2.203125 3.296875,-1.109375 Z m 0,0"
             id="path4" />
        </g>
      </g>
      <g
         fill="#000000"
         fill-opacity="1"
         id="g4"
         transform="matrix(0.352778,0,0,0.352778,-0.752695,-0.673232)">
        <g
           id="use3"
           transform="translate(6.3540001,6.5310001)">
          <path
             d="m 2.140625,-3.796875 c 0,-0.1875 -0.015625,-0.1875 -0.203125,-0.1875 -0.390625,0.390625 -1,0.390625 -1.21875,0.390625 v 0.234375 c 0.15625,0 0.5625,0 0.921875,-0.171875 v 3.015625 c 0,0.203125 0,0.28125 -0.625,0.28125 h -0.25 V 0 c 0.328125,-0.03125 0.796875,-0.03125 1.125,-0.03125 0.328125,0 0.796875,0 1.125,0.03125 v -0.234375 h -0.25 c -0.625,0 -0.625,-0.078125 -0.625,-0.28125 z m 0,0"
             id="path5" />
        </g>
      </g>
    </g>
    <g
       inkscape:label=""
       transform="translate(61.01538,86.724874)"
       id="g16">
      <g
         fill="#000000"
         fill-opacity="1"
         id="g13"
         transform="matrix(0.352778,0,0,0.352778,-0.752695,-0.673232)">
        <g
           id="g12"
           transform="translate(1.993,5.4239998)">
          <path
             d="m 3.265625,-1.28125 c -0.09375,-0.984375 -0.5,-1.625 -0.5,-1.640625 -0.171875,-0.265625 -0.46875,-0.59375 -1,-0.59375 -1.03125,0 -1.625,1.15625 -1.625,1.4375 0,0.0625 0.0625,0.09375 0.125,0.09375 0.078125,0 0.09375,-0.03125 0.125,-0.09375 0.234375,-0.703125 1.03125,-0.8125 1.265625,-0.8125 1.28125,0 1.375,1.390625 1.375,2.046875 0,0.453125 -0.015625,0.515625 -0.078125,0.703125 -0.171875,0.5625 -0.40625,1.453125 -0.40625,1.671875 0,0.015625 0,0.1875 0.125,0.1875 0.09375,0 0.171875,-0.125 0.234375,-0.328125 C 3.125,0.65625 3.203125,0.125 3.25,-0.234375 c 0.03125,-0.15625 0.46875,-1.5 1.21875,-2.890625 0.09375,-0.171875 0.09375,-0.1875 0.09375,-0.21875 0,0 0,-0.09375 -0.125,-0.09375 -0.03125,0 -0.0625,0.015625 -0.09375,0.03125 C 4.3125,-3.375 3.6875,-2.203125 3.296875,-1.109375 Z m 0,0"
             id="path12" />
        </g>
      </g>
      <g
         fill="#000000"
         fill-opacity="1"
         id="g15"
         transform="matrix(0.352778,0,0,0.352778,-0.752695,-0.673232)">
        <g
           id="g14"
           transform="translate(6.3540001,6.5310001)">
          <path
             d="M 3.21875,-1.125 H 3 C 2.984375,-1.03125 2.921875,-0.640625 2.84375,-0.578125 2.796875,-0.53125 2.3125,-0.53125 2.21875,-0.53125 H 1.109375 L 1.875,-1.15625 C 2.078125,-1.328125 2.609375,-1.703125 2.796875,-1.890625 2.96875,-2.0625 3.21875,-2.375 3.21875,-2.796875 c 0,-0.75 -0.671875,-1.1875 -1.484375,-1.1875 -0.765625,0 -1.296875,0.515625 -1.296875,1.078125 0,0.296875 0.25,0.34375 0.3125,0.34375 0.15625,0 0.328125,-0.109375 0.328125,-0.328125 C 1.078125,-3.015625 1,-3.21875 0.734375,-3.21875 0.875,-3.515625 1.234375,-3.75 1.65625,-3.75 c 0.625,0 0.953125,0.46875 0.953125,0.953125 0,0.421875 -0.28125,0.859375 -0.6875,1.25 L 0.5,-0.25 C 0.4375,-0.1875 0.4375,-0.1875 0.4375,0 h 2.59375 z m 0,0"
             id="path13" />
        </g>
      </g>
    </g>
    <g
       inkscape:label=""
       transform="translate(47.854482,86.973709)"
       id="g21">
      <g
         fill="#000000"
         fill-opacity="1"
         id="g18"
         transform="matrix(0.352778,0,0,0.352778,-0.752695,-0.673232)">
        <g
           id="g17"
           transform="translate(1.993,5.4239998)">
          <path
             d="m 3.265625,-1.28125 c -0.09375,-0.984375 -0.5,-1.625 -0.5,-1.640625 -0.171875,-0.265625 -0.46875,-0.59375 -1,-0.59375 -1.03125,0 -1.625,1.15625 -1.625,1.4375 0,0.0625 0.0625,0.09375 0.125,0.09375 0.078125,0 0.09375,-0.03125 0.125,-0.09375 0.234375,-0.703125 1.03125,-0.8125 1.265625,-0.8125 1.28125,0 1.375,1.390625 1.375,2.046875 0,0.453125 -0.015625,0.515625 -0.078125,0.703125 -0.171875,0.5625 -0.40625,1.453125 -0.40625,1.671875 0,0.015625 0,0.1875 0.125,0.1875 0.09375,0 0.171875,-0.125 0.234375,-0.328125 C 3.125,0.65625 3.203125,0.125 3.25,-0.234375 c 0.03125,-0.15625 0.46875,-1.5 1.21875,-2.890625 0.09375,-0.171875 0.09375,-0.1875 0.09375,-0.21875 0,0 0,-0.09375 -0.125,-0.09375 -0.03125,0 -0.0625,0.015625 -0.09375,0.03125 C 4.3125,-3.375 3.6875,-2.203125 3.296875,-1.109375 Z m 0,0"
             id="path16" />
        </g>
      </g>
      <g
         fill="#000000"
         fill-opacity="1"
         id="g20"
         transform="matrix(0.352778,0,0,0.352778,-0.752695,-0.673232)">
        <g
           id="g19"
           transform="translate(6.3540001,6.5310001)">
          <path
             d="m 1.765625,-1.984375 c 0.5,0 0.84375,0.34375 0.84375,0.953125 0,0.65625 -0.390625,0.9375 -0.828125,0.9375 C 1.609375,-0.09375 1,-0.125 0.734375,-0.46875 0.96875,-0.5 1.0625,-0.65625 1.0625,-0.8125 c 0,-0.203125 -0.140625,-0.34375 -0.34375,-0.34375 -0.15625,0 -0.34375,0.109375 -0.34375,0.359375 0,0.59375 0.65625,0.921875 1.421875,0.921875 0.890625,0 1.46875,-0.5625 1.46875,-1.15625 0,-0.4375 -0.328125,-0.90625 -1.046875,-1.078125 0.484375,-0.15625 0.859375,-0.546875 0.859375,-1.03125 0,-0.484375 -0.5625,-0.84375 -1.28125,-0.84375 -0.703125,0 -1.234375,0.328125 -1.234375,0.8125 0,0.265625 0.203125,0.328125 0.328125,0.328125 0.15625,0 0.3125,-0.09375 0.3125,-0.3125 0,-0.1875 -0.125,-0.296875 -0.296875,-0.3125 0.28125,-0.3125 0.828125,-0.3125 0.890625,-0.3125 0.296875,0 0.6875,0.140625 0.6875,0.640625 0,0.328125 -0.1875,0.90625 -0.796875,0.9375 -0.109375,0 -0.265625,0.015625 -0.3125,0.015625 -0.0625,0.015625 -0.125,0.015625 -0.125,0.109375 0,0.09375 0.0625,0.09375 0.15625,0.09375 z m 0,0"
             id="path18" />
        </g>
      </g>
    </g>
  </g>
</svg>
