<?xml version="1.0" encoding="UTF-8" standalone="no"?>
<!-- Created with Inkscape (http://www.inkscape.org/) -->

<svg
   width="116.48129mm"
   height="57.315723mm"
   viewBox="0 0 116.48129 57.315723"
   version="1.1"
   id="svg1"
   inkscape:version="1.3 (0e150ed6c4, 2023-07-21)"
   sodipodi:docname="problem_2.svg"
   inkscape:export-filename="problem_2.png"
   inkscape:export-xdpi="253.42"
   inkscape:export-ydpi="253.42"
   xmlns:inkscape="http://www.inkscape.org/namespaces/inkscape"
   xmlns:sodipodi="http://sodipodi.sourceforge.net/DTD/sodipodi-0.dtd"
   xmlns="http://www.w3.org/2000/svg"
   xmlns:svg="http://www.w3.org/2000/svg">
  <sodipodi:namedview
     id="namedview1"
     pagecolor="#505050"
     bordercolor="#eeeeee"
     borderopacity="1"
     inkscape:showpageshadow="0"
     inkscape:pageopacity="0"
     inkscape:pagecheckerboard="0"
     inkscape:deskcolor="#d1d1d1"
     inkscape:document-units="mm"
     inkscape:zoom="15.793847"
     inkscape:cx="115.58298"
     inkscape:cy="189.06097"
     inkscape:window-width="1910"
     inkscape:window-height="1034"
     inkscape:window-x="1923"
     inkscape:window-y="41"
     inkscape:window-maximized="1"
     inkscape:current-layer="layer1" />
  <defs
     id="defs1">
    <inkscape:path-effect
       effect="spiro"
       id="path-effect6"
       is_visible="true"
       lpeversion="1" />
    <inkscape:path-effect
       effect="spiro"
       id="path-effect5"
       is_visible="true"
       lpeversion="1" />
    <marker
       style="overflow:visible"
       id="marker4"
       refX="0"
       refY="0"
       orient="auto-start-reverse"
       inkscape:stockid="Wide, rounded arrow"
       markerWidth="1"
       markerHeight="1"
       viewBox="0 0 1 1"
       inkscape:isstock="true"
       inkscape:collect="always"
       preserveAspectRatio="xMidYMid">
      <path
         style="fill:none;stroke:context-stroke;stroke-width:1;stroke-linecap:round"
         d="M 3,-3 0,0 3,3"
         transform="rotate(180,0.125,0)"
         sodipodi:nodetypes="ccc"
         id="path4" />
    </marker>
    <marker
       style="overflow:visible"
       id="ArrowWideRounded"
       refX="0"
       refY="0"
       orient="auto-start-reverse"
       inkscape:stockid="Wide, rounded arrow"
       markerWidth="1"
       markerHeight="1"
       viewBox="0 0 1 1"
       inkscape:isstock="true"
       inkscape:collect="always"
       preserveAspectRatio="xMidYMid">
      <path
         style="fill:none;stroke:context-stroke;stroke-width:1;stroke-linecap:round"
         d="M 3,-3 0,0 3,3"
         transform="rotate(180,0.125,0)"
         sodipodi:nodetypes="ccc"
         id="path3" />
    </marker>
  </defs>
  <g
     inkscape:label="Layer 1"
     inkscape:groupmode="layer"
     id="layer1"
     transform="translate(-32.107399,-9.7392987)">
    <path
       style="fill:none;stroke:#000000;stroke-width:0.2;stroke-linecap:butt;stroke-linejoin:miter;stroke-dasharray:0.8, 0.2;stroke-dashoffset:0;stroke-opacity:1;marker-start:url(#ArrowWideRounded);marker-end:url(#marker4)"
       d="m 32.29882,62.949158 c 17.66456,0 116.09845,0 116.09845,0"
       id="path1"
       sodipodi:nodetypes="cc" />
    <path
       style="fill:none;stroke:#000000;stroke-width:0.2;stroke-linecap:butt;stroke-linejoin:miter;stroke-dasharray:0.6, 0.6;stroke-dashoffset:0;stroke-opacity:1;marker-end:url(#marker4)"
       d="M 91.776613,62.992064 V 9.9307201"
       id="path2" />
    <path
       style="fill:none;stroke:#000000;stroke-width:0.264583px;stroke-linecap:butt;stroke-linejoin:miter;stroke-opacity:1"
       d="m 85.130298,63.003792 c 0.0079,-1.636332 0.684523,-3.259618 1.841154,-4.417137 1.15663,-1.157519 2.779397,-1.835384 4.415722,-1.844543 1.636325,-0.0092 3.266579,0.650495 4.436096,1.794992 1.169517,1.144498 1.864266,2.760107 1.890489,4.396248 6.09e-4,0.03803 8.74e-4,0.07606 7.94e-4,0.114091"
       id="path5"
       inkscape:path-effect="#path-effect5"
       inkscape:original-d="m 85.130298,63.003792 c 4.195815,-0.019 8.388974,-0.04696 12.583461,-0.07044 4.194491,-0.02347 5.29e-4,0.07606 7.94e-4,0.114091"
       transform="translate(0.38771174,0.03226133)" />
    <path
       style="fill:none;stroke:#000000;stroke-width:0.264583px;stroke-linecap:butt;stroke-linejoin:miter;stroke-opacity:1"
       d="M 42.586222,62.916027 C 42.893167,50.405089 48.181949,38.084766 57.04039,29.244756 65.898832,20.404745 78.230144,15.141634 90.741694,14.860748 c 12.511546,-0.280887 25.066636,4.42352 34.312866,12.857077 9.24624,8.433558 15.0826,20.504119 15.9507,32.988677 0.0518,0.744933 0.0867,1.491044 0.10455,2.237561"
       id="path6"
       inkscape:path-effect="#path-effect6"
       inkscape:original-d="m 42.586222,62.916027 c 32.869078,5.5e-5 65.585188,-2.200875 98.419038,-2.209525 32.83385,-0.0087 0.0935,1.605247 0.10455,2.237561"
       sodipodi:nodetypes="ccc" />
    <g
       inkscape:label=""
       transform="translate(97.490566,64.221682)"
       id="g7">
      <g
         fill="#000000"
         fill-opacity="1"
         id="g2"
         transform="matrix(0.352778,0,0,0.352778,-0.84089,-0.700793)">
        <g
           id="use1"
           transform="translate(1.993,5.4239998)">
          <path
             d="m 2.546875,-1.796875 c 0.125,0 0.265625,0 0.265625,-0.125 0,-0.140625 -0.109375,-0.140625 -0.25,-0.140625 h -1.375 c 0.125,-0.375 0.4375,-1.109375 1.421875,-1.109375 h 0.28125 c 0.140625,0 0.265625,0 0.265625,-0.140625 0,-0.125 -0.109375,-0.125 -0.25,-0.125 H 2.578125 c -1,0 -2.1875,0.71875 -2.1875,1.984375 0,0.9375 0.703125,1.53125 1.5625,1.53125 0.546875,0 1.125,-0.3125 1.125,-0.421875 0,-0.015625 -0.015625,-0.140625 -0.109375,-0.140625 -0.03125,0 -0.046875,0 -0.078125,0.03125 C 2.75,-0.359375 2.375,-0.140625 1.96875,-0.140625 1.5,-0.140625 1.046875,-0.46875 1.046875,-1.1875 c 0,-0.046875 0,-0.265625 0.078125,-0.609375 z m 0,0"
             id="path7" />
        </g>
      </g>
    </g>
    <g
       inkscape:label=""
       transform="translate(139.75437,64.422612)"
       id="g10">
      <g
         fill="#000000"
         fill-opacity="1"
         id="g9"
         transform="matrix(0.352778,0,0,0.352778,-0.846402,-0.705732)">
        <g
           id="g8"
           transform="translate(1.993,7.4380002)">
          <path
             d="M 3.09375,-4.890625 C 3.15625,-5.15625 3.171875,-5.171875 3.5,-5.171875 h 0.640625 c 0.65625,0 1.265625,0.15625 1.265625,0.8125 0,0.34375 -0.171875,0.90625 -0.546875,1.15625 -0.375,0.28125 -0.828125,0.359375 -1.296875,0.359375 H 2.578125 Z m 1.359375,2.1875 c 0.96875,-0.25 1.734375,-0.84375 1.734375,-1.53125 0,-0.6875 -0.78125,-1.203125 -1.890625,-1.203125 h -2.34375 c -0.140625,0 -0.25,0 -0.25,0.140625 0,0.125 0.109375,0.125 0.234375,0.125 0.265625,0 0.5,0 0.5,0.125 0,0.03125 -0.015625,0.03125 -0.03125,0.140625 L 1.328125,-0.625 C 1.265625,-0.328125 1.25,-0.265625 0.65625,-0.265625 c -0.15625,0 -0.25,0 -0.25,0.15625 C 0.40625,-0.078125 0.4375,0 0.53125,0 0.6875,0 0.875,-0.015625 1.03125,-0.03125 H 1.515625 C 2.265625,-0.03125 2.5,0 2.546875,0 c 0.046875,0 0.15625,0 0.15625,-0.15625 0,-0.109375 -0.109375,-0.109375 -0.234375,-0.109375 -0.03125,0 -0.171875,0 -0.3125,-0.015625 -0.171875,-0.015625 -0.1875,-0.03125 -0.1875,-0.109375 0,-0.046875 0.015625,-0.09375 0.03125,-0.125 l 0.515625,-2.09375 h 1.03125 c 0.71875,0 0.953125,0.375 0.953125,0.703125 0,0.109375 -0.0625,0.34375 -0.09375,0.5 C 4.328125,-1.171875 4.25,-0.859375 4.25,-0.703125 c 0,0.609375 0.53125,0.875 1.125,0.875 0.6875,0 1.015625,-0.78125 1.015625,-0.9375 0,-0.03125 -0.03125,-0.109375 -0.125,-0.109375 -0.09375,0 -0.109375,0.0625 -0.125,0.109375 C 5.96875,-0.21875 5.625,-0.0625 5.390625,-0.0625 5.09375,-0.0625 5.0625,-0.28125 5.0625,-0.546875 c 0,-0.265625 0.046875,-0.609375 0.078125,-0.875 0.03125,-0.234375 0.03125,-0.28125 0.03125,-0.359375 0,-0.484375 -0.296875,-0.765625 -0.71875,-0.921875 z m 0,0"
             id="path8" />
        </g>
      </g>
    </g>
    <g
       inkscape:label=""
       transform="translate(96.295557,55.131168)"
       id="g11">
      <g
         fill="#000000"
         fill-opacity="1"
         id="g3"
         transform="matrix(0.352778,0,0,0.352778,-0.752695,-0.673232)">
        <g
           id="use2"
           transform="translate(1.993,5.4239998)">
          <path
             d="m 3.265625,-1.28125 c -0.09375,-0.984375 -0.5,-1.625 -0.5,-1.640625 -0.171875,-0.265625 -0.46875,-0.59375 -1,-0.59375 -1.03125,0 -1.625,1.15625 -1.625,1.4375 0,0.0625 0.0625,0.09375 0.125,0.09375 0.078125,0 0.09375,-0.03125 0.125,-0.09375 0.234375,-0.703125 1.03125,-0.8125 1.265625,-0.8125 1.28125,0 1.375,1.390625 1.375,2.046875 0,0.453125 -0.015625,0.515625 -0.078125,0.703125 -0.171875,0.5625 -0.40625,1.453125 -0.40625,1.671875 0,0.015625 0,0.1875 0.125,0.1875 0.09375,0 0.171875,-0.125 0.234375,-0.328125 C 3.125,0.65625 3.203125,0.125 3.25,-0.234375 c 0.03125,-0.15625 0.46875,-1.5 1.21875,-2.890625 0.09375,-0.171875 0.09375,-0.1875 0.09375,-0.21875 0,0 0,-0.09375 -0.125,-0.09375 -0.03125,0 -0.0625,0.015625 -0.09375,0.03125 C 4.3125,-3.375 3.6875,-2.203125 3.296875,-1.109375 Z m 0,0"
             id="path10" />
        </g>
      </g>
      <g
         fill="#000000"
         fill-opacity="1"
         id="g4"
         transform="matrix(0.352778,0,0,0.352778,-0.752695,-0.673232)">
        <g
           id="use3"
           transform="translate(6.3540001,6.4200001)">
          <path
             d="m 2.25,-1.328125 c 0.09375,0 0.21875,0 0.21875,-0.125 C 2.46875,-1.5625 2.359375,-1.5625 2.25,-1.5625 H 1.125 C 1.328125,-2.140625 1.765625,-2.34375 2.25,-2.34375 H 2.5 c 0.09375,0 0.21875,0 0.21875,-0.125 0,-0.109375 -0.078125,-0.109375 -0.203125,-0.109375 h -0.28125 c -0.78125,0 -1.75,0.515625 -1.75,1.453125 0,0.71875 0.59375,1.1875 1.3125,1.1875 0.4375,0 0.921875,-0.234375 0.921875,-0.34375 0,-0.046875 -0.03125,-0.125 -0.09375,-0.125 -0.015625,0 -0.03125,0 -0.09375,0.046875 -0.1875,0.109375 -0.4375,0.21875 -0.71875,0.21875 -0.28125,0 -0.796875,-0.125 -0.796875,-0.8125 0,-0.046875 0,-0.171875 0.03125,-0.375 z m 0,0"
             id="path11" />
        </g>
      </g>
    </g>
    <g
       inkscape:label=""
       transform="translate(57.892896,64.916617)"
       id="g16">
      <g
         fill="#000000"
         fill-opacity="1"
         id="g13"
         transform="matrix(0.352778,0,0,0.352778,-0.752695,-0.673232)">
        <g
           id="g12"
           transform="translate(1.993,5.4239998)">
          <path
             d="m 3.265625,-1.28125 c -0.09375,-0.984375 -0.5,-1.625 -0.5,-1.640625 -0.171875,-0.265625 -0.46875,-0.59375 -1,-0.59375 -1.03125,0 -1.625,1.15625 -1.625,1.4375 0,0.0625 0.0625,0.09375 0.125,0.09375 0.078125,0 0.09375,-0.03125 0.125,-0.09375 0.234375,-0.703125 1.03125,-0.8125 1.265625,-0.8125 1.28125,0 1.375,1.390625 1.375,2.046875 0,0.453125 -0.015625,0.515625 -0.078125,0.703125 -0.171875,0.5625 -0.40625,1.453125 -0.40625,1.671875 0,0.015625 0,0.1875 0.125,0.1875 0.09375,0 0.171875,-0.125 0.234375,-0.328125 C 3.125,0.65625 3.203125,0.125 3.25,-0.234375 c 0.03125,-0.15625 0.46875,-1.5 1.21875,-2.890625 0.09375,-0.171875 0.09375,-0.1875 0.09375,-0.21875 0,0 0,-0.09375 -0.125,-0.09375 -0.03125,0 -0.0625,0.015625 -0.09375,0.03125 C 4.3125,-3.375 3.6875,-2.203125 3.296875,-1.109375 Z m 0,0"
             id="path12" />
        </g>
      </g>
      <g
         fill="#000000"
         fill-opacity="1"
         id="g15"
         transform="matrix(0.352778,0,0,0.352778,-0.752695,-0.673232)">
        <g
           id="g14"
           transform="translate(6.3540001,6.5310001)">
          <path
             d="m 2.140625,-3.796875 c 0,-0.1875 -0.015625,-0.1875 -0.203125,-0.1875 -0.390625,0.390625 -1,0.390625 -1.21875,0.390625 v 0.234375 c 0.15625,0 0.5625,0 0.921875,-0.171875 v 3.015625 c 0,0.203125 0,0.28125 -0.625,0.28125 h -0.25 V 0 c 0.328125,-0.03125 0.796875,-0.03125 1.125,-0.03125 0.328125,0 0.796875,0 1.125,0.03125 v -0.234375 h -0.25 c -0.625,0 -0.625,-0.078125 -0.625,-0.28125 z m 0,0"
             id="path13" />
        </g>
      </g>
    </g>
    <g
       inkscape:label=""
       transform="translate(118.39423,65.208449)"
       id="g21">
      <g
         fill="#000000"
         fill-opacity="1"
         id="g18"
         transform="matrix(0.352778,0,0,0.352778,-0.752695,-0.673232)">
        <g
           id="g17"
           transform="translate(1.993,5.4239998)">
          <path
             d="m 3.265625,-1.28125 c -0.09375,-0.984375 -0.5,-1.625 -0.5,-1.640625 -0.171875,-0.265625 -0.46875,-0.59375 -1,-0.59375 -1.03125,0 -1.625,1.15625 -1.625,1.4375 0,0.0625 0.0625,0.09375 0.125,0.09375 0.078125,0 0.09375,-0.03125 0.125,-0.09375 0.234375,-0.703125 1.03125,-0.8125 1.265625,-0.8125 1.28125,0 1.375,1.390625 1.375,2.046875 0,0.453125 -0.015625,0.515625 -0.078125,0.703125 -0.171875,0.5625 -0.40625,1.453125 -0.40625,1.671875 0,0.015625 0,0.1875 0.125,0.1875 0.09375,0 0.171875,-0.125 0.234375,-0.328125 C 3.125,0.65625 3.203125,0.125 3.25,-0.234375 c 0.03125,-0.15625 0.46875,-1.5 1.21875,-2.890625 0.09375,-0.171875 0.09375,-0.1875 0.09375,-0.21875 0,0 0,-0.09375 -0.125,-0.09375 -0.03125,0 -0.0625,0.015625 -0.09375,0.03125 C 4.3125,-3.375 3.6875,-2.203125 3.296875,-1.109375 Z m 0,0"
             id="path16" />
        </g>
      </g>
      <g
         fill="#000000"
         fill-opacity="1"
         id="g20"
         transform="matrix(0.352778,0,0,0.352778,-0.752695,-0.673232)">
        <g
           id="g19"
           transform="translate(6.3540001,6.5310001)">
          <path
             d="M 3.21875,-1.125 H 3 C 2.984375,-1.03125 2.921875,-0.640625 2.84375,-0.578125 2.796875,-0.53125 2.3125,-0.53125 2.21875,-0.53125 H 1.109375 L 1.875,-1.15625 C 2.078125,-1.328125 2.609375,-1.703125 2.796875,-1.890625 2.96875,-2.0625 3.21875,-2.375 3.21875,-2.796875 c 0,-0.75 -0.671875,-1.1875 -1.484375,-1.1875 -0.765625,0 -1.296875,0.515625 -1.296875,1.078125 0,0.296875 0.25,0.34375 0.3125,0.34375 0.15625,0 0.328125,-0.109375 0.328125,-0.328125 C 1.078125,-3.015625 1,-3.21875 0.734375,-3.21875 0.875,-3.515625 1.234375,-3.75 1.65625,-3.75 c 0.625,0 0.953125,0.46875 0.953125,0.953125 0,0.421875 -0.28125,0.859375 -0.6875,1.25 L 0.5,-0.25 C 0.4375,-0.1875 0.4375,-0.1875 0.4375,0 h 2.59375 z m 0,0"
             id="path18" />
        </g>
      </g>
    </g>
    <g
       inkscape:label=""
       transform="translate(107.42698,13.893653)"
       id="g26">
      <g
         fill="#000000"
         fill-opacity="1"
         id="g25"
         transform="matrix(0.352778,0,0,0.352778,-0.752695,-0.673232)">
        <g
           id="g24"
           transform="translate(1.993,5.4239998)">
          <path
             d="m 3.265625,-1.28125 c -0.09375,-0.984375 -0.5,-1.625 -0.5,-1.640625 -0.171875,-0.265625 -0.46875,-0.59375 -1,-0.59375 -1.03125,0 -1.625,1.15625 -1.625,1.4375 0,0.0625 0.0625,0.09375 0.125,0.09375 0.078125,0 0.09375,-0.03125 0.125,-0.09375 0.234375,-0.703125 1.03125,-0.8125 1.265625,-0.8125 1.28125,0 1.375,1.390625 1.375,2.046875 0,0.453125 -0.015625,0.515625 -0.078125,0.703125 -0.171875,0.5625 -0.40625,1.453125 -0.40625,1.671875 0,0.015625 0,0.1875 0.125,0.1875 0.09375,0 0.171875,-0.125 0.234375,-0.328125 C 3.125,0.65625 3.203125,0.125 3.25,-0.234375 c 0.03125,-0.15625 0.46875,-1.5 1.21875,-2.890625 0.09375,-0.171875 0.09375,-0.1875 0.09375,-0.21875 0,0 0,-0.09375 -0.125,-0.09375 -0.03125,0 -0.0625,0.015625 -0.09375,0.03125 C 4.3125,-3.375 3.6875,-2.203125 3.296875,-1.109375 Z m 0,0"
             id="path24" />
        </g>
      </g>
      <g
         fill="#000000"
         fill-opacity="1"
         id="g5"
         transform="matrix(0.352778,0,0,0.352778,-0.752695,-0.673232)">
        <g
           id="use4"
           transform="translate(6.3540001,6.763)">
          <path
             d="M 5.3125,-4.046875 C 5.328125,-4.09375 5.34375,-4.125 5.34375,-4.125 c 0,-0.015625 -0.015625,-0.09375 -0.09375,-0.09375 -0.046875,0 -0.0625,0.015625 -0.109375,0.078125 L 4.6875,-3.671875 C 4.359375,-4.078125 3.921875,-4.21875 3.5,-4.21875 c -1.53125,0 -2.984375,1.28125 -2.984375,2.625 0,1.03125 0.828125,1.71875 1.9375,1.71875 0.625,0 1.171875,-0.25 1.53125,-0.53125 0.59375,-0.46875 0.6875,-1 0.6875,-1.03125 0,-0.0625 -0.0625,-0.09375 -0.109375,-0.09375 -0.078125,0 -0.09375,0.03125 -0.109375,0.09375 -0.296875,0.921875 -1.234375,1.328125 -1.890625,1.328125 -0.453125,0 -1.421875,-0.1875 -1.421875,-1.328125 0,-0.234375 0.046875,-1.0625 0.703125,-1.78125 0.328125,-0.359375 0.96875,-0.75 1.703125,-0.75 0.78125,0 1.1875,0.546875 1.1875,1.171875 0,0.109375 -0.03125,0.21875 -0.03125,0.21875 0,0.09375 0.09375,0.09375 0.125,0.09375 0.078125,0 0.109375,0 0.140625,-0.125 z m 0,0"
             id="path25" />
        </g>
      </g>
      <g
         fill="#000000"
         fill-opacity="1"
         id="g6"
         transform="matrix(0.352778,0,0,0.352778,-0.752695,-0.673232)">
        <g
           id="use5"
           transform="translate(11.637,8.1079998)">
          <path
             d="M 2.375,-3.015625 C 2.421875,-3.171875 2.421875,-3.1875 2.625,-3.1875 h 0.5625 c 0.5625,0 0.9375,0.140625 0.9375,0.53125 C 4.125,-2.4375 4,-2.15625 3.765625,-2 3.71875,-1.96875 3.4375,-1.796875 2.84375,-1.796875 H 2.0625 Z m 1.171875,1.3125 C 4.109375,-1.84375 4.6875,-2.15625 4.6875,-2.609375 4.6875,-3.0625 4.078125,-3.40625 3.296875,-3.40625 H 1.5625 c -0.09375,0 -0.171875,0 -0.171875,0.140625 0,0.078125 0.0625,0.078125 0.1875,0.078125 0.046875,0 0.21875,0 0.3125,0.03125 0,0.0625 0,0.078125 -0.015625,0.125 l -0.65625,2.625 c -0.03125,0.140625 -0.03125,0.1875 -0.421875,0.1875 -0.125,0 -0.203125,0 -0.203125,0.140625 C 0.59375,-0.046875 0.625,0 0.6875,0 c 0.09375,0 0.21875,-0.015625 0.328125,-0.015625 0.125,0 0.234375,0 0.359375,0 0.125,0 0.25,0 0.375,0 C 1.859375,-0.015625 1.984375,0 2.078125,0 c 0.03125,0 0.125,0 0.125,-0.140625 0,-0.078125 -0.0625,-0.078125 -0.15625,-0.078125 -0.015625,0 -0.140625,0 -0.21875,-0.015625 -0.125,-0.015625 -0.125,-0.015625 -0.125,-0.0625 0,0 0,-0.015625 0.015625,-0.0625 L 2.03125,-1.625 H 2.8125 c 0.375,0 0.71875,0.140625 0.71875,0.4375 0,0.0625 -0.046875,0.234375 -0.078125,0.34375 -0.03125,0.125 -0.0625,0.296875 -0.0625,0.390625 0,0.46875 0.5,0.5625 0.8125,0.5625 0.5,0 0.734375,-0.484375 0.734375,-0.59375 C 4.9375,-0.5625 4.859375,-0.5625 4.828125,-0.5625 4.75,-0.5625 4.75,-0.53125 4.71875,-0.46875 c -0.078125,0.25 -0.296875,0.40625 -0.484375,0.40625 -0.125,0 -0.265625,-0.03125 -0.265625,-0.359375 C 3.96875,-0.53125 4,-0.8125 4.015625,-0.9375 4.03125,-1.078125 4.03125,-1.09375 4.03125,-1.125 c 0,-0.390625 -0.328125,-0.515625 -0.484375,-0.578125 z m 0,0"
             id="path26" />
        </g>
      </g>
    </g>
    <path
       style="fill:none;stroke:#000000;stroke-width:0.264583px;stroke-linecap:butt;stroke-linejoin:miter;stroke-opacity:1"
       d="m 95.737959,57.289503 0.548291,1.354471 -1.209646,-0.219165"
       id="path27" />
    <path
       style="fill:none;stroke:#000000;stroke-width:0.264583px;stroke-linecap:butt;stroke-linejoin:miter;stroke-opacity:1"
       d="m 116.19698,62.077981 2.08715,0.91095 -2.07647,0.683107"
       id="path28" />
    <path
       style="fill:none;stroke:#000000;stroke-width:0.264583px;stroke-linecap:butt;stroke-linejoin:miter;stroke-opacity:1"
       d="m 60.558172,62.076262 2.08715,0.91095 -2.07647,0.683107"
       id="path28-5" />
    <path
       style="fill:none;stroke:#000000;stroke-width:0.264583px;stroke-linecap:butt;stroke-linejoin:miter;stroke-opacity:1"
       d="m 108.73867,19.070568 -0.23519,-0.360197 -1.24457,-1.350895 2.11456,-0.436392"
       id="path29" />
    <path
       style="fill:none;stroke:#000000;stroke-width:0.264583px;stroke-linecap:butt;stroke-linejoin:miter;stroke-opacity:1"
       d="m 98.136407,62.937045 43.004693,0.02609"
       id="path30" />
    <path
       style="fill:none;stroke:#000000;stroke-width:0.264583px;stroke-linecap:butt;stroke-linejoin:miter;stroke-opacity:1"
       d="M 42.633889,62.951785 H 85.529596"
       id="path31" />
  </g>
</svg>
